Coordinates
version=1
nRows=13
nColumns=36
inDegrees=yes

Units are S.I. units (second, meters, Newtons, ...)
If the header above contains a line with 'inDegrees', this indicates whether rotational values are in degrees (yes) or radians (no).

endheader
time	pelvis_tilt	pelvis_list	pelvis_rotation	pelvis_tx	pelvis_ty	pelvis_tz	hip_flexion_r	hip_adduction_r	hip_rotation_r	knee_angle_r	knee_angle_r_beta	ankle_angle_r	subtalar_angle_r	mtp_angle_r	hip_flexion_l	hip_adduction_l	hip_rotation_l	knee_angle_l	knee_angle_l_beta	ankle_angle_l	subtalar_angle_l	mtp_angle_l	lumbar_extension	lumbar_bending	lumbar_rotation	arm_flex_r	arm_add_r	arm_rot_r	elbow_flex_r	pro_sup_r	arm_flex_l	arm_add_l	arm_rot_l	elbow_flex_l	pro_sup_l
      4.95000000	     -2.31613355	     -9.49735549	     10.13626711	      0.58983951	      0.93586381	     -0.16409349	     30.57883073	      0.17669611	     -0.40564120	     66.99544840	      1.16929116	     -0.10345319	    -13.77869625	     -7.49999987	     11.33273633	     -0.68614157	      5.67410665	     15.65568855	      0.27324331	     11.37464485	     -4.77132013	     -7.49999987	     -4.99136636	     -4.21888890	     -0.35304454	     47.34181059	     12.72216694	     65.38544779	    130.51346389	     98.39243428	     42.01728548	      7.39224687	     64.17025955	    123.22411575	     78.54995947
      4.96666670	     -2.24705280	     -9.39396496	     10.74540449	      0.58957044	      0.93641212	     -0.16457384	     30.77781667	      0.23485376	     -0.82949955	     67.12798366	      1.17160434	     -1.31545737	    -13.93995977	     -7.49999987	     11.60717681	     -0.44026343	      5.59061644	     15.88147974	      0.27718411	     10.83452128	     -4.95919960	     -7.49999987	     -5.18089856	     -4.04578310	     -0.28804095	     47.20770441	     12.39525186	     65.34838135	    130.33364217	     97.78357920	     42.54910320	      7.40252963	     64.82380017	    123.10549542	     77.27857421
      4.98333330	     -2.37080403	     -9.25263026	     11.15738392	      0.58890355	      0.93359222	     -0.16429781	     31.39655889	      0.22677092	     -1.00985052	     67.49460923	      1.17800316	     -1.53731529	    -13.54257954	     -7.49999987	     12.15781621	     -0.18785897	      5.29833628	     16.27828232	      0.28410962	     10.50181029	     -4.97338214	     -7.49999987	     -5.10243890	     -3.98676858	     -0.31019255	     46.85809173	     12.29912721	     65.13570900	    130.11030779	     96.30302365	     42.68686352	      7.45547181	     64.94992554	    123.14699259	     76.43418094
      5.00000000	     -2.33669272	     -9.17189203	     11.39440396	      0.58804218	      0.93715658	     -0.16450782	     31.28610172	      0.41619261	     -1.05328327	     66.95915676	      1.16865775	     -1.60624300	    -12.94774178	     -7.49999987	     11.52991484	     -0.01762826	      5.62479260	     15.02360081	      0.26221130	      9.26973809	     -5.44664719	     -7.49999987	     -5.41324384	     -3.85579508	     -0.29541131	     46.79267021	     12.13603434	     65.37719906	    130.25555349	     95.82045086	     42.94957619	      7.48181948	     65.91867720	    123.37961859	     76.05814663
      5.01666670	     -2.43662143	     -9.13567126	     11.44229472	      0.58811697	      0.93994495	     -0.16469480	     31.27512544	      0.66093181	     -0.98633583	     66.00756799	      1.15204939	     -1.35479599	    -12.76655636	     -7.49999987	     11.28771019	      0.10250321	      5.72906057	     14.30786844	      0.24971941	      8.51002690	     -6.07282477	     -7.49999987	     -5.49682000	     -3.62791098	     -0.18264129	     46.64756284	     11.93607329	     65.29421301	    130.51706529	     98.54205346	     42.60340507	      7.42493468	     66.48393395	    123.60350181	     78.36908141
      5.03333330	     -2.58142560	     -8.94286264	     11.23372190	      0.58383823	      0.93713651	     -0.16796275	     31.50880971	      0.71501373	     -0.96765260	     65.89291738	      1.15004836	     -0.70534565	    -12.32516428	     -7.49999987	     11.31218593	      0.41184025	      5.67020024	     13.88358081	      0.24231420	      7.66143324	     -6.67576924	     -7.49999987	     -5.66706908	     -3.44805819	      0.04408790	     46.59945948	     11.87111568	     65.34015021	    130.73673344	     98.47576389	     42.56486223	      7.65210988	     67.19318152	    124.13203089	     78.42577853
      5.05000000	     -2.83602874	     -8.72113498	     11.19848275	      0.58841540	      0.93422830	     -0.16393373	     31.17010553	      0.92944304	     -1.43272267	     65.63811974	      1.14560130	      0.25264931	    -12.50804145	     -7.49999987	     11.41341264	      0.61758970	      5.47103361	     13.61512955	      0.23762884	      7.24003363	     -6.55848858	     -7.49999987	     -5.40007602	     -3.49092901	      0.09255356	     46.56238443	     11.91487489	     65.21229149	    130.95135330	     98.38686542	     42.52933432	      7.87436134	     67.48107831	    124.43277116	     78.42415754
      5.06666670	     -3.05828669	     -8.29550157	     11.06150739	      0.58888280	      0.93459138	     -0.16373009	     30.94327456	      0.82273710	     -1.72592683	     65.64637260	      1.14574534	      1.43179451	    -11.67034048	     -7.49999987	     11.46783884	      1.03619413	      5.35117381	     13.34898529	      0.23298375	      6.88014472	     -6.82950137	     -7.49999987	     -5.23485070	     -3.79960362	      0.46829024	     46.60140267	     11.82037777	     65.27938957	    131.64399571	     97.68480949	     42.80011416	      8.17665384	     68.67846379	    124.96629361	     77.87221462
      5.08333330	     -3.31094701	     -7.95900038	     11.03216721	      0.58419065	      0.93332222	     -0.16688915	     30.80497607	      0.74796240	     -1.95184848	     65.65952727	      1.14597494	      2.90401825	    -10.81727946	     -7.49999987	     11.67821239	      1.51669554	      5.53561073	     13.27728293	      0.23173230	      6.86960861	     -6.98049188	     -7.49999987	     -5.10469723	     -3.78479377	      0.31662686	     46.54603250	     11.60167850	     65.45967098	    132.20002226	     97.68887188	     43.04164395	      8.39169179	     68.97388055	    124.87211891	     77.84202280
      5.10000000	     -3.49165815	     -7.60906332	     10.93560559	      0.58491637	      0.93315689	     -0.16657186	     30.71795850	      0.67964427	     -1.96782164	     65.91396128	      1.15041565	      4.05295456	    -11.04446077	     -7.49999987	     12.08535887	      1.94405715	      5.27930652	     13.81094496	      0.24104646	      7.32918447	     -6.90472228	     -7.49999987	     -4.93219603	     -3.67685393	      0.21918115	     46.34408059	     11.36542495	     65.45472408	    132.24617724	     96.53322822	     43.17147686	      8.17310445	     68.79072324	    124.69465068	     77.23436789
      5.11666670	     -3.47789526	     -7.36480580	     10.76889547	      0.58504279	      0.93268126	     -0.16623117	     30.64823103	      0.61509535	     -1.87969528	     66.27479199	      1.15671333	      5.09397681	    -10.45182854	     -7.49999987	     12.28851837	      2.21503457	      5.29072046	     14.15452698	      0.24704310	      7.41973003	     -7.14360678	     -7.49999987	     -5.06039228	     -3.48147478	      0.07644215	     46.34746449	     11.09157038	     65.57006485	    132.62705503	     95.82871346	     43.50260298	      8.12183478	     68.91019182	    124.74531893	     75.79116881
      5.13333330	     -3.70506534	     -7.15482120	     10.66974286	      0.58544373	      0.93291121	     -0.16610688	     30.61782166	      0.79379340	     -1.60259028	     66.13241465	      1.15422838	      5.69803548	    -10.32415748	     -7.49999987	     12.70009407	      2.51028546	      5.26030356	     14.32820690	      0.25007439	      7.30244744	     -7.23303529	     -7.49999987	     -4.93132847	     -3.28811279	     -0.05135578	     46.17816338	     10.82836405	     65.32740702	    132.34782931	     97.73823891	     43.43611363	      8.01856669	     68.88687502	    124.86163089	     75.71156387
      5.15000000	     -4.02304987	     -7.07864927	     10.63671160	      0.58552081	      0.93220366	     -0.16597210	     30.73551733	      1.12007570	     -1.26693256	     65.96841564	      1.15136606	      6.34370918	    -10.73470283	     -7.49999987	     12.92827341	      2.67805061	      5.15152077	     14.12387573	      0.24650813	      7.27101819	     -7.27083536	     -7.49999987	     -4.56578995	     -3.10570176	     -0.14714342	     45.94860084	     10.59900431	     65.28934550	    132.33305907	     96.56805630	     43.31887236	      7.91337374	     69.02203144	    124.90398041	     74.80497898
